<svg width="38" height="14" viewBox="0 0 38 14" fill="none" xmlns="http://www.w3.org/2000/svg">
<path d="M0.378029 13.068C0.162029 12.948 0.0420293 12.816 0.0180293 12.672C0.00602934 12.528 0.0900294 12.276 0.270029 11.916C0.450029 11.556 0.732029 10.998 1.11603 10.242C1.40403 9.702 1.59603 9.282 1.69203 8.982C1.80003 8.67 1.86003 8.448 1.87203 8.316C1.88403 8.184 1.89003 8.1 1.89003 8.064C1.86603 7.956 1.87803 7.872 1.92603 7.812C1.97403 7.74 2.05203 7.68 2.16003 7.632C2.22003 7.572 2.35803 7.464 2.57403 7.308C2.79003 7.152 2.95803 6.966 3.07803 6.75C3.18603 6.498 3.30603 6.24 3.43803 5.976C3.58203 5.712 3.76803 5.382 3.99603 4.986C4.22403 4.578 4.53003 4.05 4.91403 3.402C5.15403 2.982 5.43603 2.508 5.76003 1.98C6.09603 1.452 6.42603 0.971998 6.75003 0.539998C6.88203 0.371998 7.02003 0.239998 7.16403 0.143998C7.30803 0.0479984 7.43403 -1.3113e-06 7.54203 -1.3113e-06C7.80603 -1.3113e-06 8.07003 0.0719985 8.33403 0.215998C8.59803 0.347998 8.83203 0.515998 9.03603 0.719998C9.24003 0.923998 9.37803 1.116 9.45003 1.296C9.51003 1.392 9.53403 1.596 9.52203 1.908C9.51003 2.22 9.48603 2.598 9.45003 3.042C9.41403 3.486 9.37203 3.96 9.32403 4.464C9.28803 4.956 9.23403 5.538 9.16203 6.21C9.09003 6.882 9.01803 7.584 8.94603 8.316C8.88603 9.048 8.83803 9.756 8.80203 10.44C8.76603 11.112 8.76603 11.7 8.80203 12.204C8.81403 12.312 8.81403 12.414 8.80203 12.51C8.79003 12.606 8.78403 12.684 8.78403 12.744C8.71203 12.816 8.55603 12.846 8.31603 12.834C8.07603 12.834 7.84203 12.798 7.61403 12.726C7.38603 12.654 7.26003 12.564 7.23603 12.456C7.20003 12.42 7.17603 12.39 7.16403 12.366C7.15203 12.342 7.15203 12.228 7.16403 12.024C7.17603 11.808 7.19403 11.418 7.21803 10.854L7.30803 8.1L7.07403 8.118C6.96603 8.118 6.76803 8.13 6.48003 8.154C6.20403 8.178 5.89803 8.214 5.56203 8.262C5.23803 8.298 4.93803 8.34 4.66203 8.388C4.38603 8.424 4.19403 8.46 4.08603 8.496C3.97803 8.496 3.84603 8.568 3.69003 8.712C3.54603 8.856 3.40803 9.042 3.27603 9.27C3.22803 9.438 3.13803 9.618 3.00603 9.81C2.88603 9.99 2.82603 10.11 2.82603 10.17C2.74203 10.23 2.67003 10.302 2.61003 10.386C2.56203 10.47 2.53803 10.512 2.53803 10.512C2.53803 10.584 2.48403 10.764 2.37603 11.052C2.26803 11.328 2.13603 11.64 1.98003 11.988C1.82403 12.324 1.66203 12.618 1.49403 12.87L1.00803 13.554L0.378029 13.068ZM4.68003 6.876C4.68003 6.876 4.74603 6.864 4.87803 6.84C5.01003 6.816 5.16603 6.792 5.34603 6.768C5.53803 6.732 5.70603 6.714 5.85003 6.714C6.12603 6.642 6.35403 6.588 6.53403 6.552C6.72603 6.516 6.88203 6.498 7.00203 6.498C7.12203 6.486 7.21803 6.498 7.29003 6.534C7.33803 6.594 7.38003 6.63 7.41603 6.642C7.46403 6.654 7.48803 6.66 7.48803 6.66C7.50003 6.636 7.52403 6.51 7.56003 6.282C7.59603 6.054 7.63803 5.772 7.68603 5.436C7.73403 5.1 7.78203 4.752 7.83003 4.392C7.87803 4.02 7.92003 3.678 7.95603 3.366C7.99203 3.042 8.01603 2.79 8.02803 2.61C8.04003 2.382 8.03403 2.178 8.01003 1.998C7.98603 1.806 7.97403 1.71 7.97403 1.71C7.90203 1.71 7.76403 1.842 7.56003 2.106C7.36803 2.358 7.14003 2.7 6.87603 3.132C6.62403 3.552 6.37203 4.008 6.12003 4.5C6.00003 4.728 5.88603 4.908 5.77803 5.04C5.68203 5.172 5.60403 5.238 5.54403 5.238C5.52003 5.262 5.45403 5.358 5.34603 5.526C5.25003 5.682 5.14203 5.862 5.02203 6.066C4.91403 6.258 4.81803 6.438 4.73403 6.606C4.66203 6.762 4.64403 6.852 4.68003 6.876ZM12.5954 12.366C12.3554 12.342 12.1634 12.282 12.0194 12.186C11.8874 12.078 11.7854 11.946 11.7134 11.79C11.6174 11.682 11.5574 11.598 11.5334 11.538C11.5214 11.478 11.5214 11.424 11.5334 11.376C11.5934 11.376 11.6474 11.376 11.6954 11.376C11.7434 11.364 11.7734 11.34 11.7854 11.304C11.7854 11.268 11.8034 11.244 11.8394 11.232C11.8874 11.22 11.9354 11.22 11.9834 11.232C12.2114 11.244 12.4874 11.166 12.8114 10.998C13.1474 10.83 13.5134 10.596 13.9094 10.296C14.3054 9.984 14.7014 9.648 15.0974 9.288C15.4094 8.88 15.6254 8.58 15.7454 8.388C15.8774 8.196 15.9434 8.052 15.9434 7.956C15.9554 7.848 15.9314 7.74 15.8714 7.632C15.8234 7.536 15.7094 7.488 15.5294 7.488C15.3494 7.488 15.0734 7.608 14.7014 7.848C14.1854 8.172 13.7714 8.472 13.4594 8.748C13.1474 9.024 12.8594 9.336 12.5954 9.684C12.4994 9.804 12.3914 9.936 12.2714 10.08C12.1634 10.212 12.0674 10.326 11.9834 10.422C11.9114 10.518 11.8754 10.566 11.8754 10.566C11.8754 10.614 11.8034 10.674 11.6594 10.746C11.5274 10.818 11.4134 10.854 11.3174 10.854C11.2694 10.83 11.2034 10.788 11.1194 10.728C11.0474 10.656 10.9994 10.566 10.9754 10.458C10.8674 10.374 10.7774 10.302 10.7054 10.242C10.6334 10.17 10.5974 10.056 10.5974 9.9C10.5974 9.804 10.6094 9.684 10.6334 9.54C10.6694 9.396 10.7174 9.21 10.7774 8.982C10.8494 8.67 10.9274 8.346 11.0114 8.01C11.0954 7.662 11.1734 7.368 11.2454 7.128C11.3294 6.876 11.3894 6.738 11.4254 6.714C11.4254 6.714 11.4494 6.66 11.4974 6.552C11.5454 6.444 11.5694 6.318 11.5694 6.174C11.5934 6.03 11.6294 5.904 11.6774 5.796C11.7374 5.688 11.7674 5.61 11.7674 5.562C11.8154 5.526 11.8874 5.382 11.9834 5.13C12.0794 4.878 12.1994 4.548 12.3434 4.14C12.3434 4.104 12.3854 3.99 12.4694 3.798C12.5534 3.594 12.6554 3.36 12.7754 3.096C12.8954 2.82 13.0154 2.538 13.1354 2.25C13.2674 1.95 13.3754 1.686 13.4594 1.458C13.6034 1.254 13.7234 1.05 13.8194 0.845999C13.9274 0.629998 14.0234 0.503998 14.1074 0.467998C14.1674 0.455998 14.2694 0.479998 14.4134 0.539998C14.5694 0.599998 14.7254 0.677998 14.8814 0.773998C15.0374 0.869999 15.1454 0.965999 15.2054 1.062C15.2414 1.122 15.2594 1.182 15.2594 1.242C15.2714 1.302 15.2474 1.404 15.1874 1.548C15.1274 1.68 15.0254 1.902 14.8814 2.214C14.7374 2.514 14.5334 2.94 14.2694 3.492C13.9334 4.212 13.6694 4.812 13.4774 5.292C13.2974 5.772 13.1474 6.186 13.0274 6.534C12.9194 6.882 12.8054 7.212 12.6854 7.524L12.5954 7.92L13.0634 7.398C13.1834 7.278 13.3094 7.164 13.4414 7.056C13.5734 6.948 13.7174 6.84 13.8734 6.732C13.9694 6.66 14.0954 6.588 14.2514 6.516C14.4194 6.432 14.5814 6.36 14.7374 6.3C14.8934 6.24 15.0074 6.204 15.0794 6.192C15.1154 6.18 15.2354 6.156 15.4394 6.12C15.6554 6.072 15.8654 6.048 16.0694 6.048C16.3334 6.048 16.5614 6.144 16.7534 6.336C16.9574 6.516 17.1374 6.738 17.2934 7.002C17.4254 7.254 17.4734 7.578 17.4374 7.974C17.4014 8.358 17.2994 8.688 17.1314 8.964C17.0714 9.012 17.0114 9.078 16.9514 9.162C16.8914 9.234 16.8614 9.294 16.8614 9.342C16.8494 9.426 16.7414 9.6 16.5374 9.864C16.3334 10.116 16.1294 10.356 15.9254 10.584C15.7094 10.812 15.4454 11.04 15.1334 11.268C14.8214 11.484 14.5094 11.682 14.1974 11.862C13.8974 12.03 13.6394 12.15 13.4234 12.222C13.3274 12.234 13.1894 12.258 13.0094 12.294C12.8294 12.318 12.6914 12.342 12.5954 12.366ZM19.4954 12.348C19.3394 12.348 19.2134 12.318 19.1174 12.258C19.0334 12.198 18.9254 12.114 18.7934 12.006C18.5654 11.766 18.3794 11.508 18.2354 11.232C18.1034 10.956 18.0554 10.716 18.0914 10.512C18.1274 10.416 18.1394 10.326 18.1274 10.242C18.1274 10.146 18.1274 10.098 18.1274 10.098C18.0674 10.038 18.0494 10.002 18.0734 9.99C18.0974 9.966 18.1214 9.93 18.1454 9.882C18.2174 9.882 18.2414 9.816 18.2174 9.684C18.1934 9.588 18.2294 9.384 18.3254 9.072C18.4334 8.748 18.5774 8.442 18.7574 8.154C18.8294 8.034 18.9374 7.878 19.0814 7.686C19.2254 7.482 19.3814 7.284 19.5494 7.092C19.7294 6.888 19.8914 6.726 20.0354 6.606C20.3354 6.354 20.6114 6.15 20.8634 5.994C21.1274 5.838 21.3914 5.73 21.6554 5.67C21.9194 5.61 22.1894 5.58 22.4654 5.58C22.7534 5.58 22.9874 5.676 23.1674 5.868C23.4434 5.988 23.6354 6.15 23.7434 6.354C23.8634 6.558 23.9414 6.822 23.9774 7.146C24.0134 7.506 23.9774 7.95 23.8694 8.478C23.7614 8.994 23.4674 9.594 22.9874 10.278C22.6874 10.71 22.3934 11.046 22.1054 11.286C21.8174 11.526 21.4994 11.748 21.1514 11.952C20.8994 12.12 20.6294 12.222 20.3414 12.258C20.0534 12.294 19.7714 12.324 19.4954 12.348ZM21.3314 10.152C21.5954 9.924 21.7814 9.672 21.8894 9.396C22.0094 9.12 22.1354 8.796 22.2674 8.424C22.3154 8.352 22.3454 8.232 22.3574 8.064C22.3814 7.896 22.3874 7.734 22.3754 7.578C22.3634 7.41 22.3214 7.314 22.2494 7.29C22.1414 7.206 22.0334 7.188 21.9254 7.236C21.8174 7.272 21.6794 7.35 21.5114 7.47C21.1514 7.77 20.8154 8.118 20.5034 8.514C20.2034 8.898 19.9934 9.372 19.8734 9.936C19.8374 10.236 19.8674 10.464 19.9634 10.62C20.0714 10.764 20.2394 10.806 20.4674 10.746C20.7074 10.674 20.9954 10.476 21.3314 10.152ZM29.1669 12.582C29.0829 12.63 28.9689 12.612 28.8249 12.528C28.6929 12.444 28.5609 12.318 28.4289 12.15C28.3449 12.006 28.2789 11.862 28.2309 11.718C28.1949 11.562 28.1769 11.334 28.1769 11.034C28.1889 10.794 28.1889 10.632 28.1769 10.548C28.1769 10.452 28.1229 10.446 28.0149 10.53C27.9189 10.602 27.7209 10.782 27.4209 11.07C27.1209 11.37 26.8329 11.628 26.5569 11.844C26.2929 12.048 26.0769 12.144 25.9089 12.132C25.8249 12.132 25.7109 12.078 25.5669 11.97C25.4229 11.862 25.2849 11.73 25.1529 11.574C25.0209 11.406 24.9249 11.25 24.8649 11.106C24.7929 10.818 24.7869 10.446 24.8469 9.99C24.9189 9.534 25.0329 9.06 25.1889 8.568C25.3449 8.064 25.5189 7.596 25.7109 7.164C25.9149 6.72 26.1129 6.366 26.3049 6.102C26.5089 5.826 26.6829 5.694 26.8269 5.706C27.0309 5.73 27.2049 5.832 27.3489 6.012C27.5049 6.18 27.6249 6.366 27.7089 6.57C27.7569 6.654 27.7749 6.726 27.7629 6.786C27.7629 6.846 27.7149 6.918 27.6189 7.002C27.5109 7.146 27.3789 7.356 27.2229 7.632C27.0789 7.896 26.9289 8.184 26.7729 8.496C26.6289 8.808 26.4969 9.108 26.3769 9.396C26.2689 9.672 26.1909 9.9 26.1429 10.08C26.0949 10.26 26.0949 10.35 26.1429 10.35C26.3109 10.35 26.4669 10.308 26.6109 10.224C26.7549 10.128 26.9349 9.978 27.1509 9.774C27.4029 9.522 27.6249 9.27 27.8169 9.018C28.0089 8.754 28.2069 8.454 28.4109 8.118C28.5669 7.878 28.7289 7.614 28.8969 7.326C29.0769 7.038 29.1909 6.834 29.2389 6.714C29.4069 6.402 29.5329 6.168 29.6169 6.012C29.7009 5.856 29.8029 5.76 29.9229 5.724C29.9829 5.724 30.0669 5.724 30.1749 5.724C30.2829 5.724 30.3369 5.724 30.3369 5.724C30.4089 5.736 30.4929 5.79 30.5889 5.886C30.6849 5.934 30.7809 6 30.8769 6.084C30.9849 6.168 31.0389 6.24 31.0389 6.3C30.9909 6.42 30.9129 6.6 30.8049 6.84C30.7089 7.068 30.6369 7.236 30.5889 7.344C30.3609 7.86 30.1389 8.37 29.9229 8.874C29.7189 9.366 29.5689 9.87 29.4729 10.386C29.4489 10.554 29.4429 10.752 29.4549 10.98C29.4789 11.196 29.5149 11.352 29.5629 11.448C29.5989 11.52 29.6409 11.604 29.6889 11.7C29.7489 11.784 29.8149 11.856 29.8869 11.916C29.9949 11.988 29.9889 12.078 29.8689 12.186C29.7609 12.294 29.6229 12.39 29.4549 12.474C29.2989 12.546 29.2029 12.582 29.1669 12.582ZM33.795 12.582C33.627 12.534 33.459 12.45 33.291 12.33C33.123 12.21 32.949 12.072 32.769 11.916C32.625 11.724 32.523 11.55 32.463 11.394C32.403 11.226 32.367 11.034 32.355 10.818C32.355 10.59 32.355 10.302 32.355 9.954C32.355 9.81 32.379 9.606 32.427 9.342C32.487 9.078 32.547 8.802 32.607 8.514C32.679 8.226 32.745 7.974 32.805 7.758C32.865 7.53 32.901 7.38 32.913 7.308C32.949 7.152 32.889 7.062 32.733 7.038C32.577 7.014 32.403 7.008 32.211 7.02C32.031 7.02 31.911 7.002 31.851 6.966C31.803 6.954 31.779 6.894 31.779 6.786C31.779 6.666 31.779 6.606 31.779 6.606C31.779 6.558 31.755 6.528 31.707 6.516C31.659 6.492 31.617 6.45 31.581 6.39C31.557 6.342 31.587 6.252 31.671 6.12C31.755 5.988 31.863 5.91 31.995 5.886C32.103 5.862 32.265 5.844 32.481 5.832C32.697 5.808 32.913 5.766 33.129 5.706C33.357 5.634 33.531 5.526 33.651 5.382C33.759 5.118 33.879 4.836 34.011 4.536C34.143 4.224 34.269 3.954 34.389 3.726C34.509 3.486 34.593 3.336 34.641 3.276C34.845 3.168 35.055 3.126 35.271 3.15C35.487 3.162 35.655 3.264 35.775 3.456C35.835 3.54 35.883 3.6 35.919 3.636C35.967 3.672 35.985 3.726 35.973 3.798C35.973 3.87 35.925 4.002 35.829 4.194C35.745 4.374 35.601 4.656 35.397 5.04C35.337 5.16 35.283 5.268 35.235 5.364C35.187 5.448 35.163 5.49 35.163 5.49C35.211 5.502 35.283 5.508 35.379 5.508C35.475 5.508 35.595 5.502 35.739 5.49C35.871 5.466 36.015 5.448 36.171 5.436C36.327 5.412 36.465 5.412 36.585 5.436C36.861 5.436 37.065 5.514 37.197 5.67C37.329 5.826 37.401 6.024 37.413 6.264C37.437 6.396 37.389 6.51 37.269 6.606C37.149 6.702 36.927 6.75 36.603 6.75C36.495 6.75 36.339 6.756 36.135 6.768C35.931 6.78 35.721 6.792 35.505 6.804C35.289 6.816 35.103 6.834 34.947 6.858C34.803 6.87 34.731 6.888 34.731 6.912C34.695 6.936 34.635 7.032 34.551 7.2C34.479 7.356 34.401 7.548 34.317 7.776C34.245 8.004 34.179 8.22 34.119 8.424C34.035 8.832 33.975 9.228 33.939 9.612C33.903 9.996 33.897 10.332 33.921 10.62C33.957 10.896 34.029 11.094 34.137 11.214C34.245 11.322 34.407 11.322 34.623 11.214C34.851 11.094 35.061 10.956 35.253 10.8C35.469 10.62 35.655 10.566 35.811 10.638C35.967 10.698 36.063 10.83 36.099 11.034C36.147 11.226 36.093 11.436 35.937 11.664C35.793 11.892 35.589 12.084 35.325 12.24C35.061 12.396 34.791 12.504 34.515 12.564C34.239 12.636 33.999 12.642 33.795 12.582Z" fill="#262626"/>
</svg>
