<svg width="106" height="21" viewBox="0 0 106 21" fill="none" xmlns="http://www.w3.org/2000/svg">
<path d="M2.66397 15.888C2.34397 15.856 2.08797 15.776 1.89597 15.648C1.71997 15.504 1.58397 15.328 1.48797 15.12C1.35997 14.976 1.27997 14.864 1.24797 14.784C1.23197 14.704 1.23197 14.632 1.24797 14.568C1.32797 14.568 1.39997 14.568 1.46397 14.568C1.52797 14.552 1.56797 14.52 1.58397 14.472C1.58397 14.424 1.60797 14.392 1.65597 14.376C1.71997 14.36 1.78397 14.36 1.84797 14.376C2.15197 14.392 2.51997 14.288 2.95197 14.064C3.39997 13.84 3.88797 13.528 4.41597 13.128C4.94397 12.712 5.47197 12.264 5.99997 11.784C6.41597 11.24 6.70397 10.84 6.86397 10.584C7.03997 10.328 7.12797 10.136 7.12797 10.008C7.14397 9.864 7.11197 9.72 7.03197 9.576C6.96797 9.448 6.81597 9.384 6.57597 9.384C6.33597 9.384 5.96797 9.544 5.47197 9.864C4.78397 10.296 4.23197 10.696 3.81597 11.064C3.39997 11.432 3.01597 11.848 2.66397 12.312C2.53597 12.472 2.39197 12.648 2.23197 12.84C2.08797 13.016 1.95997 13.168 1.84797 13.296C1.75197 13.424 1.70397 13.488 1.70397 13.488C1.70397 13.552 1.60797 13.632 1.41597 13.728C1.23997 13.824 1.08797 13.872 0.959969 13.872C0.895969 13.84 0.807969 13.784 0.695969 13.704C0.599969 13.608 0.535969 13.488 0.503969 13.344C0.359969 13.232 0.239969 13.136 0.143969 13.056C0.0479689 12.96 -3.1054e-05 12.808 -3.1054e-05 12.6C-3.1054e-05 12.472 0.0159689 12.312 0.0479689 12.12C0.0959688 11.928 0.159969 11.68 0.239969 11.376C0.335969 10.96 0.439969 10.528 0.551969 10.08C0.663969 9.616 0.767969 9.224 0.863969 8.904C0.975969 8.568 1.05597 8.384 1.10397 8.352C1.10397 8.352 1.13597 8.28 1.19997 8.136C1.26397 7.992 1.29597 7.824 1.29597 7.632C1.32797 7.44 1.37597 7.272 1.43997 7.128C1.51997 6.984 1.55997 6.88 1.55997 6.816C1.62397 6.768 1.71997 6.576 1.84797 6.24C1.97597 5.904 2.13597 5.464 2.32797 4.92C2.32797 4.872 2.38397 4.72 2.49597 4.464C2.60797 4.192 2.74397 3.88 2.90397 3.528C3.06397 3.16 3.22397 2.784 3.38397 2.4C3.55997 2 3.70397 1.648 3.81597 1.344C4.00797 1.072 4.16797 0.799997 4.29597 0.527997C4.43997 0.239997 4.56797 0.0719967 4.67997 0.0239964C4.75997 0.00799656 4.89597 0.0399966 5.08797 0.119997C5.29597 0.199996 5.50397 0.303997 5.71197 0.431997C5.91997 0.559997 6.06397 0.687997 6.14397 0.815998C6.19197 0.895998 6.21597 0.975997 6.21597 1.056C6.23197 1.136 6.19997 1.272 6.11997 1.464C6.03997 1.64 5.90397 1.936 5.71197 2.352C5.51997 2.752 5.24797 3.32 4.89597 4.056C4.44797 5.016 4.09597 5.816 3.83997 6.456C3.59997 7.096 3.39997 7.648 3.23997 8.112C3.09597 8.576 2.94397 9.016 2.78397 9.432L2.66397 9.96L3.28797 9.264C3.44797 9.104 3.61597 8.952 3.79197 8.808C3.96797 8.664 4.15997 8.52 4.36797 8.376C4.49597 8.28 4.66397 8.184 4.87197 8.088C5.09597 7.976 5.31197 7.88 5.51997 7.8C5.72797 7.72 5.87997 7.672 5.97597 7.656C6.02397 7.64 6.18397 7.608 6.45597 7.56C6.74397 7.496 7.02397 7.464 7.29597 7.464C7.64797 7.464 7.95197 7.592 8.20797 7.848C8.47997 8.088 8.71997 8.384 8.92797 8.736C9.10397 9.072 9.16797 9.504 9.11997 10.032C9.07197 10.544 8.93597 10.984 8.71197 11.352C8.63197 11.416 8.55197 11.504 8.47197 11.616C8.39197 11.712 8.35197 11.792 8.35197 11.856C8.33597 11.968 8.19197 12.2 7.91997 12.552C7.64797 12.888 7.37597 13.208 7.10397 13.512C6.81597 13.816 6.46397 14.12 6.04797 14.424C5.63197 14.712 5.21597 14.976 4.79997 15.216C4.39997 15.44 4.05597 15.6 3.76797 15.696C3.63997 15.712 3.45597 15.744 3.21597 15.792C2.97597 15.824 2.79197 15.856 2.66397 15.888ZM10.856 15.456C10.696 15.36 10.52 15.224 10.328 15.048C10.136 14.856 10.04 14.672 10.04 14.496C10.04 14.256 10.072 13.96 10.136 13.608C10.2 13.24 10.264 12.928 10.328 12.672C10.36 12.384 10.4 12.096 10.448 11.808C10.512 11.504 10.624 11.224 10.784 10.968C10.96 10.36 11.144 9.76 11.336 9.168C11.528 8.56 11.696 7.936 11.84 7.296C12.048 6.704 12.232 6.184 12.392 5.736C12.568 5.272 12.784 4.688 13.04 3.984C13.184 3.584 13.304 3.16 13.4 2.712C13.512 2.248 13.68 1.832 13.904 1.464C14 1.32 14.072 1.2 14.12 1.104C14.184 0.991997 14.248 0.887997 14.312 0.791996C14.328 0.727996 14.408 0.671997 14.552 0.623997C14.712 0.575997 14.872 0.551997 15.032 0.551997C15.208 0.535997 15.328 0.567997 15.392 0.647997C15.44 0.631997 15.52 0.695997 15.632 0.839997C15.744 0.967998 15.848 1.12 15.944 1.296C16.056 1.456 16.104 1.584 16.088 1.68C16.088 1.744 16.072 1.832 16.04 1.944C16.024 2.056 15.984 2.16 15.92 2.256C15.856 2.32 15.792 2.416 15.728 2.544C15.68 2.656 15.6 2.816 15.488 3.024C15.424 3.232 15.368 3.448 15.32 3.672C15.272 3.88 15.208 4.072 15.128 4.248C15.064 4.44 14.984 4.624 14.888 4.8C14.808 4.976 14.752 5.12 14.72 5.232C14.608 5.6 14.472 5.96 14.312 6.312C14.168 6.664 14.04 7.04 13.928 7.44C13.816 7.824 13.704 8.224 13.592 8.64C13.48 9.04 13.32 9.424 13.112 9.792C13 9.968 12.92 10.192 12.872 10.464C12.824 10.736 12.776 11.008 12.728 11.28C12.632 11.568 12.544 11.84 12.464 12.096C12.4 12.336 12.368 12.488 12.368 12.552C12.272 12.904 12.2 13.256 12.152 13.608C12.12 13.944 12.04 14.24 11.912 14.496C11.896 14.656 11.84 14.832 11.744 15.024C11.648 15.216 11.52 15.36 11.36 15.456C11.216 15.552 11.048 15.552 10.856 15.456ZM16.1297 15.864C15.9217 15.864 15.7537 15.824 15.6257 15.744C15.5137 15.664 15.3697 15.552 15.1937 15.408C14.8897 15.088 14.6417 14.744 14.4497 14.376C14.2737 14.008 14.2097 13.688 14.2577 13.416C14.3057 13.288 14.3217 13.168 14.3057 13.056C14.3057 12.928 14.3057 12.864 14.3057 12.864C14.2257 12.784 14.2017 12.736 14.2337 12.72C14.2657 12.688 14.2977 12.64 14.3297 12.576C14.4257 12.576 14.4577 12.488 14.4257 12.312C14.3937 12.184 14.4417 11.912 14.5697 11.496C14.7137 11.064 14.9057 10.656 15.1457 10.272C15.2417 10.112 15.3857 9.904 15.5777 9.648C15.7697 9.376 15.9777 9.112 16.2017 8.856C16.4417 8.584 16.6577 8.368 16.8497 8.208C17.2497 7.872 17.6177 7.6 17.9537 7.392C18.3057 7.184 18.6577 7.04 19.0097 6.96C19.3617 6.88 19.7217 6.84 20.0897 6.84C20.4737 6.84 20.7857 6.968 21.0257 7.224C21.3937 7.384 21.6497 7.6 21.7937 7.872C21.9537 8.144 22.0577 8.496 22.1057 8.928C22.1537 9.408 22.1057 10 21.9617 10.704C21.8177 11.392 21.4257 12.192 20.7857 13.104C20.3857 13.68 19.9937 14.128 19.6097 14.448C19.2257 14.768 18.8017 15.064 18.3377 15.336C18.0017 15.56 17.6417 15.696 17.2577 15.744C16.8737 15.792 16.4977 15.832 16.1297 15.864ZM18.5777 12.936C18.9297 12.632 19.1777 12.296 19.3217 11.928C19.4817 11.56 19.6497 11.128 19.8257 10.632C19.8897 10.536 19.9297 10.376 19.9457 10.152C19.9777 9.928 19.9857 9.712 19.9697 9.504C19.9537 9.28 19.8977 9.152 19.8017 9.12C19.6577 9.008 19.5137 8.984 19.3697 9.048C19.2257 9.096 19.0417 9.2 18.8177 9.36C18.3377 9.76 17.8897 10.224 17.4737 10.752C17.0737 11.264 16.7937 11.896 16.6337 12.648C16.5857 13.048 16.6257 13.352 16.7537 13.56C16.8977 13.752 17.1217 13.808 17.4257 13.728C17.7457 13.632 18.1297 13.368 18.5777 12.936ZM26.337 20.76C26.049 20.904 25.673 20.936 25.209 20.856C24.761 20.776 24.313 20.616 23.865 20.376C23.433 20.152 23.081 19.888 22.809 19.584C22.665 19.424 22.537 19.232 22.425 19.008C22.313 18.784 22.241 18.568 22.209 18.36C22.177 18.168 22.217 18.04 22.329 17.976C22.473 17.88 22.641 17.832 22.833 17.832C23.041 17.832 23.217 17.856 23.361 17.904C23.521 17.952 23.601 18.008 23.601 18.072C23.777 18.232 23.945 18.368 24.105 18.48C24.281 18.608 24.449 18.704 24.609 18.768C24.833 18.864 25.033 18.88 25.209 18.816C25.401 18.768 25.577 18.664 25.737 18.504C25.865 18.328 25.977 18.104 26.073 17.832C26.185 17.576 26.273 17.28 26.337 16.944L26.409 16.632C26.585 15.832 26.753 15.08 26.913 14.376C27.089 13.656 27.233 13.136 27.345 12.816C27.313 12.816 27.273 12.824 27.225 12.84C27.177 12.856 27.129 12.88 27.081 12.912C26.985 12.96 26.889 13.008 26.793 13.056C26.697 13.104 26.601 13.152 26.505 13.2C26.297 13.312 26.113 13.4 25.953 13.464C25.793 13.512 25.649 13.552 25.521 13.584C25.313 13.648 25.161 13.672 25.065 13.656C24.969 13.64 24.889 13.632 24.825 13.632C24.665 13.632 24.457 13.584 24.201 13.488C23.945 13.376 23.729 13.24 23.553 13.08C23.409 12.936 23.305 12.792 23.241 12.648C23.177 12.488 23.137 12.32 23.121 12.144C23.105 11.968 23.097 11.792 23.097 11.616C23.097 11.376 23.225 10.952 23.481 10.344C23.737 9.72 24.113 9.112 24.609 8.52C24.913 8.216 25.313 7.912 25.809 7.608C26.305 7.304 26.809 7.048 27.321 6.84C27.849 6.616 28.281 6.504 28.617 6.504C28.681 6.504 28.753 6.512 28.833 6.528C28.929 6.544 29.017 6.584 29.097 6.648C29.369 6.712 29.641 6.864 29.913 7.104C30.185 7.328 30.425 7.624 30.633 7.992C30.761 8.248 30.865 8.52 30.945 8.808C31.041 9.096 31.089 9.4 31.089 9.72C31.089 9.976 31.041 10.2 30.945 10.392C30.865 10.568 30.785 10.672 30.705 10.704C30.673 10.736 30.633 10.76 30.585 10.776C30.537 10.776 30.481 10.784 30.417 10.8C30.385 10.8 30.321 10.816 30.225 10.848C30.129 10.896 30.033 10.984 29.937 11.112C29.857 11.224 29.777 11.424 29.697 11.712C29.681 11.792 29.665 11.872 29.649 11.952C29.633 12.032 29.609 12.112 29.577 12.192C29.577 12.208 29.553 12.248 29.505 12.312C29.473 12.36 29.449 12.424 29.433 12.504C29.417 12.616 29.385 12.712 29.337 12.792C29.305 12.856 29.273 12.928 29.241 13.008C29.225 13.072 29.217 13.128 29.217 13.176C29.217 13.208 29.217 13.24 29.217 13.272L29.121 13.536C29.073 13.696 29.025 13.84 28.977 13.968C28.945 14.096 28.929 14.176 28.929 14.208L28.833 14.688C28.801 14.864 28.761 15.04 28.713 15.216C28.681 15.392 28.649 15.56 28.617 15.72C28.585 15.88 28.545 16.04 28.497 16.2C28.145 17.608 27.785 18.672 27.417 19.392C27.065 20.112 26.705 20.568 26.337 20.76ZM24.921 11.448C24.953 11.8 25.249 11.952 25.809 11.904C26.369 11.84 26.993 11.504 27.681 10.896C27.953 10.672 28.193 10.416 28.401 10.128C28.625 9.84 28.777 9.544 28.857 9.24C28.937 8.984 28.953 8.808 28.905 8.712C28.873 8.6 28.737 8.536 28.497 8.52C28.177 8.52 27.849 8.592 27.513 8.736C27.193 8.864 26.849 9.048 26.481 9.288C26.273 9.576 26.097 9.76 25.953 9.84C25.809 9.92 25.713 9.96 25.665 9.96C25.633 9.944 25.649 9.952 25.713 9.984C25.681 10.048 25.649 10.104 25.617 10.152C25.585 10.2 25.553 10.248 25.521 10.296C25.425 10.456 25.329 10.592 25.233 10.704C25.137 10.816 25.057 10.928 24.993 11.04C24.945 11.152 24.921 11.288 24.921 11.448ZM33.4232 14.784C33.0872 14.896 32.8072 14.952 32.5832 14.952C32.3592 14.936 32.1112 14.832 31.8392 14.64C31.5192 14.32 31.4072 14 31.5032 13.68C31.6152 13.344 31.9032 13.016 32.3672 12.696C32.6872 12.504 32.9192 12.408 33.0632 12.408C33.2232 12.392 33.4552 12.448 33.7592 12.576C34.3032 12.912 34.5432 13.288 34.4792 13.704C34.4152 14.104 34.0632 14.464 33.4232 14.784ZM37.965 16.176C37.421 15.952 37.021 15.72 36.765 15.48C36.525 15.224 36.429 15 36.477 14.808C36.509 14.712 36.565 14.624 36.645 14.544C36.725 14.464 36.901 14.432 37.173 14.448C37.461 14.448 37.901 14.52 38.493 14.664C38.669 14.664 38.845 14.656 39.021 14.64C39.197 14.624 39.357 14.6 39.501 14.568C39.661 14.536 39.789 14.496 39.885 14.448C39.965 14.416 39.989 14.376 39.957 14.328C39.925 14.264 39.869 14.2 39.789 14.136C39.725 14.056 39.653 14.008 39.573 13.992C39.493 13.96 39.421 13.944 39.357 13.944C39.325 13.864 39.253 13.784 39.141 13.704C39.045 13.624 38.925 13.536 38.781 13.44C38.429 13.152 38.109 12.896 37.821 12.672C37.533 12.448 37.421 12.28 37.485 12.168C37.485 12.104 37.485 12.072 37.485 12.072C37.485 12.056 37.485 12.048 37.485 12.048C37.373 12.048 37.269 11.896 37.173 11.592C37.077 11.272 37.029 10.984 37.029 10.728C37.029 10.408 37.093 10.088 37.221 9.768C37.365 9.448 37.541 9.144 37.749 8.856C37.973 8.568 38.197 8.312 38.421 8.088C38.725 7.8 39.045 7.52 39.381 7.248C39.733 6.96 40.109 6.704 40.509 6.48C40.925 6.256 41.381 6.08 41.877 5.952C42.101 5.904 42.357 5.88 42.645 5.88C42.933 5.88 43.141 5.92 43.269 6C43.397 5.92 43.557 5.944 43.749 6.072C43.941 6.184 44.133 6.344 44.325 6.552C44.517 6.76 44.661 6.968 44.757 7.176C44.757 7.368 44.749 7.608 44.733 7.896C44.733 8.168 44.717 8.408 44.685 8.616C44.653 8.824 44.581 8.928 44.469 8.928C44.469 8.928 44.445 8.936 44.397 8.952C44.365 8.952 44.349 8.992 44.349 9.072C44.349 9.232 44.229 9.416 43.989 9.624C43.685 9.832 43.397 10 43.125 10.128C42.853 10.256 42.645 10.264 42.501 10.152C42.405 10.088 42.317 10.024 42.237 9.96C42.157 9.896 42.085 9.816 42.021 9.72C42.021 9.72 41.997 9.688 41.949 9.624C41.917 9.544 41.901 9.472 41.901 9.408C41.901 9.344 41.925 9.288 41.973 9.24C42.021 9.176 42.045 9.144 42.045 9.144C42.269 8.936 42.437 8.744 42.549 8.568C42.677 8.392 42.765 8.24 42.813 8.112C42.861 7.968 42.885 7.856 42.885 7.776C42.885 7.68 42.861 7.624 42.813 7.608C42.781 7.576 42.701 7.56 42.573 7.56C42.493 7.56 42.317 7.624 42.045 7.752C41.789 7.88 41.517 8.04 41.229 8.232C40.941 8.408 40.717 8.568 40.557 8.712C40.493 8.824 40.445 8.896 40.413 8.928C40.397 8.96 40.357 8.976 40.293 8.976C40.293 8.912 40.253 8.92 40.173 9C40.093 9.08 39.997 9.192 39.885 9.336C39.773 9.48 39.661 9.632 39.549 9.792C39.437 9.952 39.349 10.08 39.285 10.176C39.269 10.32 39.229 10.456 39.165 10.584C39.117 10.696 39.101 10.816 39.117 10.944C39.133 11.104 39.213 11.256 39.357 11.4C39.501 11.544 39.709 11.728 39.981 11.952C40.541 12.368 40.957 12.696 41.229 12.936C41.517 13.176 41.717 13.368 41.829 13.512C41.941 13.656 42.013 13.8 42.045 13.944C42.317 14.44 42.349 14.872 42.141 15.24C41.933 15.592 41.613 15.864 41.181 16.056C41.021 16.136 40.741 16.208 40.341 16.272C39.941 16.352 39.517 16.384 39.069 16.368C38.637 16.368 38.269 16.304 37.965 16.176ZM46.5716 15.84C46.5076 15.808 46.3956 15.72 46.2356 15.576C46.0916 15.432 45.9476 15.272 45.8036 15.096C45.6596 14.904 45.5636 14.76 45.5156 14.664C45.4676 14.584 45.4676 14.44 45.5156 14.232C45.5796 14.024 45.6436 13.92 45.7076 13.92C45.7556 13.952 45.8196 13.896 45.8996 13.752C45.9796 13.608 46.0596 13.456 46.1396 13.296C46.2196 13.12 46.2596 13.016 46.2596 12.984C46.2756 12.92 46.3156 12.872 46.3796 12.84C46.4596 12.792 46.5316 12.744 46.5956 12.696C46.6756 12.568 46.7796 12.44 46.9076 12.312C47.0516 12.168 47.1636 12.048 47.2436 11.952C47.3716 11.792 47.6036 11.552 47.9396 11.232C48.2756 10.912 48.6036 10.584 48.9236 10.248C49.2596 9.88 49.5556 9.56 49.8116 9.288C50.0676 9 50.2036 8.8 50.2196 8.688C50.2196 8.688 50.2436 8.664 50.2916 8.616C50.3556 8.552 50.4276 8.496 50.5076 8.448C50.5876 8.4 50.6916 8.32 50.8196 8.208C50.9636 8.096 51.0836 7.992 51.1796 7.896C51.2116 7.768 51.2836 7.624 51.3956 7.464C51.5236 7.288 51.6676 7.12 51.8276 6.96C51.9556 6.768 52.0756 6.56 52.1876 6.336C52.2996 6.096 52.3716 5.92 52.4036 5.808C52.4516 5.632 52.4356 5.528 52.3556 5.496C52.2756 5.448 52.0596 5.368 51.7076 5.256C51.3236 5.128 50.9636 5.104 50.6276 5.184C50.2916 5.264 49.8436 5.504 49.2836 5.904C49.0596 5.952 48.8516 6.016 48.6596 6.096C48.4836 6.176 48.3316 6.208 48.2036 6.192C48.1396 6.16 48.0676 6.088 47.9876 5.976C47.9076 5.864 47.8196 5.76 47.7236 5.664L47.4836 4.632L48.2276 4.224C48.8836 3.808 49.5076 3.496 50.0996 3.288C50.7076 3.064 51.2356 3.024 51.6836 3.168C51.8596 3.168 52.0196 3.192 52.1636 3.24C52.3076 3.272 52.3796 3.288 52.3796 3.288C52.5076 3.272 52.6916 3.336 52.9316 3.48C53.1876 3.624 53.4356 3.808 53.6756 4.032C53.9316 4.256 54.1076 4.48 54.2036 4.704C54.4596 5.088 54.5556 5.552 54.4916 6.096C54.4276 6.64 54.1956 7.208 53.7956 7.8C53.7156 7.896 53.5396 8.096 53.2676 8.4C52.9956 8.704 52.6836 9.048 52.3316 9.432C51.9956 9.8 51.6836 10.128 51.3956 10.416C51.1236 10.704 50.9476 10.888 50.8676 10.968C50.7556 11.016 50.5636 11.168 50.2916 11.424C50.0356 11.68 49.7556 11.968 49.4516 12.288C49.1636 12.592 48.9156 12.864 48.7076 13.104C48.5156 13.328 48.4356 13.44 48.4676 13.44C48.4516 13.504 48.5316 13.504 48.7076 13.44C48.8996 13.36 49.0676 13.296 49.2116 13.248C49.4516 13.168 49.7316 13.096 50.0516 13.032C50.3876 12.952 50.7236 12.888 51.0596 12.84C51.3956 12.792 51.6836 12.76 51.9236 12.744C52.1796 12.728 52.3316 12.744 52.3796 12.792C52.4116 12.872 52.4356 12.904 52.4516 12.888C52.4836 12.856 52.4996 12.84 52.4996 12.84C52.5316 12.728 52.7316 12.696 53.0996 12.744C53.4836 12.792 53.8276 12.864 54.1316 12.96C54.3076 13.008 54.4436 13.072 54.5396 13.152C54.6516 13.232 54.7076 13.304 54.7076 13.368C54.7076 13.368 54.7236 13.408 54.7556 13.488C54.8036 13.552 54.8756 13.64 54.9716 13.752C55.2276 13.96 55.2276 14.184 54.9716 14.424C54.7316 14.664 54.2916 14.728 53.6516 14.616C53.2356 14.616 52.8916 14.64 52.6196 14.688C52.5556 14.72 52.4196 14.736 52.2116 14.736C52.0036 14.736 51.8036 14.744 51.6116 14.76C51.3236 14.728 51.0356 14.744 50.7476 14.808C50.4596 14.856 50.1156 14.944 49.7156 15.072C49.5716 15.12 49.3476 15.192 49.0436 15.288C48.7396 15.384 48.4116 15.48 48.0596 15.576C47.7076 15.672 47.3876 15.744 47.0996 15.792C46.8276 15.84 46.6516 15.856 46.5716 15.84ZM64.1203 15.456C63.7683 15.424 63.4723 15.352 63.2323 15.24C63.0083 15.112 62.8243 14.864 62.6803 14.496C62.6163 14.24 62.5843 13.976 62.5843 13.704C62.6003 13.416 62.6243 13.144 62.6563 12.888C62.6883 12.616 62.7043 12.384 62.7043 12.192C62.7043 12.16 62.7043 12.096 62.7043 12C62.7043 11.904 62.7043 11.816 62.7043 11.736C62.6723 11.496 62.6083 11.352 62.5123 11.304C62.4323 11.24 62.2883 11.248 62.0803 11.328C61.7443 11.488 61.3763 11.704 60.9763 11.976C60.5923 12.232 60.1843 12.536 59.7523 12.888C59.3363 13.224 58.9043 13.584 58.4563 13.968C58.1043 14.352 57.8403 14.664 57.6643 14.904C57.5043 15.144 57.3363 15.264 57.1603 15.264C57.0323 15.328 56.8963 15.312 56.7523 15.216C56.6083 15.12 56.4563 15.008 56.2963 14.88C56.1843 14.752 56.0483 14.592 55.8883 14.4C55.7443 14.192 55.6563 14.056 55.6243 13.992C55.6243 13.736 55.6403 13.504 55.6723 13.296C55.7203 13.088 55.7843 12.872 55.8643 12.648C55.9603 12.424 56.0723 12.168 56.2003 11.88C56.2643 11.768 56.3203 11.656 56.3683 11.544C56.4323 11.416 56.5043 11.28 56.5843 11.136C56.6483 10.912 56.7363 10.656 56.8483 10.368C56.9763 10.08 57.0963 9.808 57.2083 9.552C57.3843 9.136 57.5203 8.776 57.6163 8.472C57.7123 8.168 57.7923 7.84 57.8563 7.488C57.8403 7.456 57.8483 7.408 57.8803 7.344C57.9123 7.28 57.9603 7.24 58.0243 7.224H58.0483H58.0723C58.1843 7.144 58.3923 7.136 58.6963 7.2C59.0163 7.248 59.2563 7.336 59.4163 7.464C59.7523 7.752 59.9123 8.128 59.8963 8.592C59.8803 9.056 59.6403 9.664 59.1763 10.416C59.0643 10.672 58.9443 10.912 58.8163 11.136C58.7043 11.344 58.6483 11.488 58.6483 11.568C58.6483 11.568 58.7123 11.52 58.8403 11.424C58.9683 11.328 59.1203 11.216 59.2963 11.088C59.4723 10.944 59.6243 10.832 59.7523 10.752C59.8323 10.672 60.0083 10.528 60.2803 10.32C60.5523 10.096 60.8483 9.864 61.1683 9.624C61.4883 9.384 61.7443 9.2 61.9363 9.072C62.1123 8.944 62.3363 8.816 62.6083 8.688C62.8803 8.544 63.0483 8.472 63.1123 8.472C63.2723 8.472 63.4643 8.528 63.6883 8.64C63.9283 8.752 64.1443 8.888 64.3363 9.048C64.5443 9.192 64.6643 9.328 64.6963 9.456C64.6963 9.52 64.6883 9.608 64.6723 9.72C64.6563 9.816 64.6483 9.904 64.6483 9.984C64.6323 10.24 64.6243 10.552 64.6243 10.92C64.6403 11.272 64.6483 11.632 64.6483 12C64.6483 12.352 64.6163 12.672 64.5523 12.96C64.5523 12.96 64.5603 12.976 64.5763 13.008C64.5923 13.024 64.6083 13.056 64.6243 13.104C64.6083 13.12 64.6003 13.152 64.6003 13.2C64.6163 13.232 64.6243 13.248 64.6243 13.248C64.6563 13.36 64.6883 13.472 64.7203 13.584C64.7683 13.696 64.8243 13.824 64.8883 13.968C64.9523 14.096 65.0243 14.264 65.1043 14.472C65.0883 14.68 64.9683 14.888 64.7443 15.096C64.5363 15.288 64.3283 15.408 64.1203 15.456ZM68.3919 14.784C68.0559 14.896 67.7759 14.952 67.5519 14.952C67.3279 14.936 67.0799 14.832 66.8079 14.64C66.4879 14.32 66.3759 14 66.4719 13.68C66.5839 13.344 66.8719 13.016 67.3359 12.696C67.6559 12.504 67.8879 12.408 68.0319 12.408C68.1919 12.392 68.4239 12.448 68.7279 12.576C69.2719 12.912 69.5119 13.288 69.4479 13.704C69.3839 14.104 69.0319 14.464 68.3919 14.784ZM73.3657 16.056C73.1897 16.024 72.9977 15.92 72.7897 15.744C72.5817 15.552 72.3897 15.344 72.2137 15.12C72.0537 14.88 71.9497 14.68 71.9017 14.52C71.9017 14.488 71.8777 14.448 71.8297 14.4C71.7977 14.352 71.7817 14.328 71.7817 14.328C71.7177 14.28 71.6777 14.072 71.6617 13.704C71.6617 13.32 71.6857 12.896 71.7337 12.432C71.7817 11.968 71.8377 11.6 71.9017 11.328C71.9817 11.072 72.1017 10.728 72.2617 10.296C72.4217 9.848 72.5577 9.448 72.6697 9.096L73.3177 7.704L72.3577 7.44C72.2457 7.408 72.1497 7.344 72.0697 7.248C72.0057 7.152 71.9737 7.072 71.9737 7.008C71.9737 6.88 72.0457 6.696 72.1897 6.456C72.3337 6.216 72.4377 6.096 72.5017 6.096C72.5817 6.112 72.7257 6.12 72.9337 6.12C73.1577 6.12 73.3737 6.112 73.5817 6.096C73.7897 6.08 73.9177 6.064 73.9657 6.048C74.0297 6.016 74.0937 5.976 74.1577 5.928C74.2217 5.864 74.2697 5.776 74.3017 5.664C74.3817 5.488 74.4537 5.352 74.5177 5.256C74.5817 5.16 74.6697 5.016 74.7817 4.824C74.8937 4.616 74.9817 4.44 75.0457 4.296C75.1257 4.152 75.2457 3.952 75.4057 3.696C75.4857 3.584 75.5737 3.448 75.6697 3.288C75.7657 3.128 75.8857 2.992 76.0297 2.88C76.1737 2.752 76.4057 2.664 76.7257 2.616C77.0617 2.552 77.3497 2.624 77.5897 2.832C77.7177 2.992 77.7897 3.144 77.8057 3.288C77.8217 3.432 77.7577 3.616 77.6137 3.84C77.4857 4.112 77.3337 4.36 77.1577 4.584C76.9977 4.792 76.8457 5.032 76.7017 5.304C76.4457 5.656 76.3977 5.856 76.5577 5.904C76.7177 5.952 77.1657 5.92 77.9017 5.808C78.3657 5.728 78.7017 5.776 78.9097 5.952C79.1177 6.128 79.2377 6.352 79.2697 6.624C79.3177 7.008 79.2777 7.24 79.1497 7.32C79.0217 7.4 78.6537 7.44 78.0457 7.44C77.6617 7.504 77.3337 7.544 77.0617 7.56C76.7897 7.56 76.5897 7.56 76.4617 7.56C76.2537 7.576 76.1177 7.584 76.0537 7.584C75.9897 7.584 75.8937 7.6 75.7657 7.632C75.6377 7.664 75.5417 7.72 75.4777 7.8C75.4297 7.864 75.3737 7.96 75.3097 8.088C75.2457 8.152 75.1497 8.32 75.0217 8.592C74.8937 8.864 74.7337 9.16 74.5417 9.48C74.3177 10.152 74.1257 10.8 73.9657 11.424C73.8217 12.032 73.6937 12.64 73.5817 13.248C73.5337 13.552 73.5417 13.776 73.6057 13.92C73.6857 14.048 73.8937 14.128 74.2297 14.16C74.4057 14.176 74.6617 14.176 74.9977 14.16C75.3337 14.128 75.6137 14.08 75.8377 14.016C76.0137 13.936 76.1977 13.856 76.3897 13.776C76.5817 13.68 76.7577 13.584 76.9177 13.488C77.0617 13.408 77.2057 13.328 77.3497 13.248C77.4937 13.152 77.5657 13.104 77.5657 13.104C77.6457 12.976 77.7577 13 77.9017 13.176C78.0617 13.336 78.1737 13.512 78.2377 13.704C78.2377 13.896 78.1977 14.128 78.1177 14.4C78.0377 14.656 77.7417 14.928 77.2297 15.216C76.5097 15.664 75.7897 15.936 75.0697 16.032C74.3497 16.128 73.7817 16.136 73.3657 16.056ZM84.239 15.552C83.759 15.824 83.247 15.984 82.703 16.032C82.175 16.064 81.679 15.992 81.215 15.816C80.751 15.624 80.375 15.344 80.087 14.976C79.927 14.768 79.775 14.44 79.631 13.992C79.487 13.528 79.463 12.904 79.559 12.12C79.655 11.384 79.879 10.64 80.231 9.888C80.599 9.136 81.047 8.472 81.575 7.896C82.103 7.32 82.679 6.928 83.303 6.72C83.527 6.64 83.751 6.584 83.975 6.552C84.215 6.504 84.527 6.496 84.911 6.528C85.279 6.576 85.607 6.672 85.895 6.816C86.183 6.944 86.391 7.088 86.519 7.248C86.775 7.504 86.943 7.752 87.023 7.992C87.103 8.232 87.135 8.464 87.119 8.688C87.039 9.2 86.807 9.752 86.423 10.344C86.055 10.936 85.535 11.376 84.863 11.664C84.591 11.776 84.271 11.848 83.903 11.88C83.535 11.912 83.031 11.864 82.391 11.736C82.007 11.656 81.751 11.696 81.623 11.856C81.511 12.016 81.463 12.328 81.479 12.792C81.511 13.08 81.575 13.336 81.671 13.56C81.783 13.768 81.983 13.912 82.271 13.992C82.639 14.056 82.903 14.064 83.063 14.016C83.223 13.952 83.423 13.864 83.663 13.752C83.791 13.672 83.911 13.584 84.023 13.488C84.151 13.392 84.271 13.296 84.383 13.2C84.511 13.104 84.615 13.032 84.695 12.984C84.775 12.92 84.855 12.88 84.935 12.864C85.015 12.848 85.095 12.84 85.175 12.84C85.351 12.856 85.519 12.952 85.679 13.128C85.839 13.304 85.943 13.472 85.991 13.632C85.991 13.76 85.911 13.944 85.751 14.184C85.591 14.408 85.375 14.648 85.103 14.904C84.847 15.144 84.559 15.36 84.239 15.552ZM83.927 10.2C84.039 10.152 84.199 10.04 84.407 9.864C84.631 9.688 84.831 9.504 85.007 9.312C85.183 9.104 85.271 8.944 85.271 8.832C85.271 8.656 85.151 8.504 84.911 8.376C84.687 8.248 84.391 8.224 84.023 8.304C83.895 8.336 83.743 8.424 83.567 8.568C83.391 8.712 83.215 8.88 83.039 9.072C82.863 9.248 82.711 9.424 82.583 9.6C82.455 9.76 82.367 9.888 82.319 9.984C82.383 10.064 82.511 10.128 82.703 10.176C82.895 10.224 83.103 10.248 83.327 10.248C83.567 10.248 83.767 10.232 83.927 10.2ZM89.7347 15.84C89.3827 15.84 89.1187 15.824 88.9427 15.792C88.7827 15.76 88.6627 15.712 88.5827 15.648C88.5027 15.584 88.3987 15.496 88.2707 15.384C88.2067 15.256 88.0947 15.096 87.9347 14.904C87.7747 14.696 87.6627 14.56 87.5987 14.496C87.5347 14.256 87.5107 13.928 87.5267 13.512C87.5587 13.096 87.6307 12.648 87.7427 12.168C87.8547 11.688 87.9907 11.256 88.1507 10.872C88.2147 10.744 88.2707 10.616 88.3187 10.488C88.3667 10.36 88.3907 10.296 88.3907 10.296C88.3907 10.216 88.4867 10.024 88.6787 9.72C88.8867 9.416 89.1107 9.096 89.3507 8.76C89.6067 8.424 89.8147 8.184 89.9747 8.04C90.0867 7.912 90.2547 7.776 90.4787 7.632C90.7187 7.488 90.9267 7.384 91.1027 7.32C91.2787 7.256 91.5187 7.176 91.8227 7.08C92.1267 6.968 92.3987 6.912 92.6387 6.912C92.8627 6.912 93.1027 6.96 93.3587 7.056C93.6147 7.152 93.8307 7.32 94.0067 7.56C94.2947 7.848 94.4787 8.192 94.5587 8.592C94.6387 8.992 94.6467 9.336 94.5827 9.624C94.5027 9.944 94.3427 10.208 94.1027 10.416C93.8627 10.608 93.6067 10.712 93.3347 10.728C93.0627 10.728 92.8227 10.616 92.6147 10.392C92.5507 10.264 92.5187 10.16 92.5187 10.08C92.5187 9.984 92.5507 9.848 92.6147 9.672C92.6787 9.448 92.7107 9.248 92.7107 9.072C92.7107 8.896 92.6387 8.808 92.4947 8.808C92.2867 8.808 92.1187 8.872 91.9907 9C91.8627 9.112 91.6707 9.304 91.4147 9.576C91.3027 9.704 91.1587 9.888 90.9827 10.128C90.8067 10.368 90.6307 10.632 90.4547 10.92C90.2947 11.192 90.1507 11.472 90.0227 11.76C89.8467 12.288 89.7347 12.632 89.6867 12.792C89.6547 12.936 89.6387 13.008 89.6387 13.008C89.6387 13.072 89.6307 13.136 89.6147 13.2C89.5987 13.248 89.5907 13.304 89.5907 13.368C89.5907 13.56 89.7027 13.712 89.9267 13.824C90.1027 13.936 90.2467 13.992 90.3587 13.992C90.4867 13.976 90.7267 13.888 91.0787 13.728C91.3347 13.6 91.5747 13.432 91.7987 13.224C92.0387 13.016 92.2867 12.832 92.5427 12.672C92.7187 12.56 92.8547 12.464 92.9507 12.384C93.0627 12.304 93.1187 12.296 93.1187 12.36C93.1187 12.424 93.1427 12.456 93.1907 12.456C93.2387 12.456 93.2947 12.424 93.3587 12.36C93.4547 12.232 93.5747 12.184 93.7187 12.216C93.8627 12.232 93.9907 12.272 94.1027 12.336C94.2307 12.4 94.2947 12.456 94.2947 12.504C94.2627 12.648 94.2947 12.768 94.3907 12.864C94.3907 12.928 94.3667 13.016 94.3187 13.128C94.2867 13.224 94.2387 13.304 94.1747 13.368C94.0947 13.48 93.9747 13.64 93.8147 13.848C93.6707 14.056 93.5347 14.24 93.4067 14.4C93.2787 14.56 93.2147 14.64 93.2147 14.64C93.1507 14.624 93.0867 14.64 93.0227 14.688C92.9747 14.736 92.9187 14.792 92.8547 14.856C92.7267 14.968 92.6067 15.056 92.4947 15.12C92.3827 15.168 92.2947 15.192 92.2307 15.192C92.1187 15.256 92.0307 15.296 91.9667 15.312C91.9187 15.328 91.8947 15.368 91.8947 15.432C91.7347 15.592 91.4467 15.704 91.0307 15.768C90.6147 15.816 90.1827 15.84 89.7347 15.84ZM104.911 15.864C104.607 15.944 104.287 16 103.951 16.032C103.631 16.08 103.351 15.984 103.111 15.744C102.967 15.52 102.839 15.32 102.727 15.144C102.615 14.968 102.543 14.656 102.511 14.208C102.495 13.904 102.511 13.576 102.559 13.224C102.623 12.856 102.647 12.592 102.631 12.432C102.759 11.84 102.791 11.416 102.727 11.16C102.679 10.904 102.615 10.776 102.535 10.776C102.359 10.744 102.079 10.872 101.695 11.16C101.327 11.448 100.887 11.856 100.375 12.384C99.8791 12.896 99.3431 13.48 98.7671 14.136C98.4631 14.552 98.2391 14.864 98.0951 15.072C97.9671 15.264 97.8711 15.36 97.8071 15.36C97.5191 15.36 97.2551 15.312 97.0151 15.216C96.7751 15.12 96.5831 14.984 96.4391 14.808C96.2951 14.632 96.2071 14.448 96.1751 14.256C96.1751 14.192 96.2151 14.024 96.2951 13.752C96.3751 13.464 96.4711 13.136 96.5831 12.768C96.6951 12.4 96.7991 12.056 96.8951 11.736C97.0071 11.416 97.0871 11.192 97.1351 11.064C97.2791 10.648 97.4471 10.144 97.6391 9.552C97.8471 8.944 98.0311 8.408 98.1911 7.944C98.2551 7.736 98.3671 7.44 98.5271 7.056C98.6871 6.656 98.8471 6.256 99.0071 5.856C99.1671 5.456 99.2791 5.16 99.3431 4.968C99.3911 4.84 99.4791 4.616 99.6071 4.296C99.7351 3.96 99.8711 3.592 100.015 3.192C100.175 2.792 100.319 2.424 100.447 2.088C100.591 1.736 100.687 1.48 100.735 1.32C100.719 1.176 100.727 1.048 100.759 0.935997C100.807 0.807997 100.855 0.711997 100.903 0.647997C100.967 0.647997 101.039 0.647997 101.119 0.647997C101.199 0.631997 101.239 0.623997 101.239 0.623997C101.239 0.591997 101.343 0.623997 101.551 0.719997C101.775 0.815997 101.991 0.935997 102.199 1.08C102.423 1.208 102.535 1.32 102.535 1.416C102.615 1.624 102.623 1.896 102.559 2.232C102.495 2.552 102.327 3.04 102.055 3.696C101.879 3.952 101.703 4.336 101.527 4.848C101.367 5.36 101.207 5.792 101.047 6.144C100.983 6.256 100.887 6.456 100.759 6.744C100.647 7.016 100.511 7.344 100.351 7.728C100.207 8.096 100.063 8.488 99.9191 8.904C99.7751 9.32 99.6471 9.728 99.5351 10.128C99.3751 10.512 99.3191 10.768 99.3671 10.896C99.4151 11.024 99.6071 10.88 99.9431 10.464C100.391 9.984 100.807 9.552 101.191 9.168C101.591 8.784 101.959 8.48 102.295 8.256C102.647 8.016 102.959 7.912 103.231 7.944C103.375 7.976 103.559 8.08 103.783 8.256C104.023 8.416 104.247 8.608 104.455 8.832C104.679 9.04 104.823 9.24 104.887 9.432C104.951 9.656 104.991 9.872 105.007 10.08C105.039 10.288 105.047 10.584 105.031 10.968C105.015 11.336 104.975 11.888 104.911 12.624C104.815 13.168 104.751 13.56 104.719 13.8C104.687 14.024 104.695 14.184 104.743 14.28C104.807 14.376 104.903 14.48 105.031 14.592C105.271 14.784 105.367 15.016 105.319 15.288C105.271 15.544 105.135 15.736 104.911 15.864Z" fill="#262626"/>
</svg>
