<svg width="34" height="14" viewBox="0 0 34 14" fill="none" xmlns="http://www.w3.org/2000/svg">
<path d="M0.719902 13.266C0.575902 13.266 0.455902 13.188 0.359902 13.032C0.287902 12.96 0.209902 12.846 0.125902 12.69C0.0419024 12.534 0.0119024 12.282 0.0359025 11.934C0.0719025 11.574 0.203902 11.052 0.431902 10.368C0.551902 9.912 0.647902 9.582 0.719902 9.378C0.791902 9.162 0.827902 9.006 0.827902 8.91C0.827902 8.778 0.839902 8.67 0.863902 8.586C0.899902 8.49 0.917902 8.4 0.917902 8.316C0.989902 8.316 1.0619 8.25 1.1339 8.118C1.2059 7.986 1.2659 7.806 1.3139 7.578C1.3619 7.374 1.4039 7.212 1.4399 7.092C1.4879 6.96 1.5119 6.87 1.5119 6.822C1.5719 6.726 1.6319 6.576 1.6919 6.372C1.7639 6.168 1.8719 5.922 2.0159 5.634C2.1119 5.274 2.2199 4.902 2.3399 4.518C2.4599 4.122 2.5799 3.756 2.6999 3.42C2.8319 3.072 2.9399 2.802 3.0239 2.61C3.1559 2.238 3.2579 1.98 3.3299 1.836C3.4019 1.68 3.4019 1.578 3.3299 1.53C3.2459 1.47 3.2039 1.32 3.2039 1.08C3.2159 0.827997 3.3299 0.611997 3.5459 0.431998C3.6779 0.275997 3.8459 0.167997 4.0499 0.107997C4.2539 0.0359976 4.4879 -2.26498e-06 4.7519 -2.26498e-06C5.0159 -2.26498e-06 5.2919 0.0119976 5.5799 0.0359973C5.7959 0.0479971 6.0239 0.053997 6.2639 0.053997C6.5159 0.053997 6.6719 0.053997 6.7319 0.053997C6.8399 0.101997 6.9719 0.155997 7.1279 0.215997C7.2839 0.275997 7.4219 0.335997 7.5419 0.395997C7.6739 0.443997 7.7399 0.485997 7.7399 0.521997C7.7399 0.593997 7.7639 0.641997 7.8119 0.665998C7.8719 0.677998 7.9319 0.689997 7.9919 0.701997C8.0759 0.701997 8.2139 0.779997 8.4059 0.935997C8.5979 1.08 8.7899 1.26 8.9819 1.476C9.1859 1.68 9.3299 1.884 9.4139 2.088C9.5099 2.292 9.5879 2.484 9.6479 2.664C9.7199 2.844 9.7259 3.102 9.6659 3.438C9.6539 3.618 9.6239 3.798 9.5759 3.978C9.5399 4.158 9.4979 4.278 9.4499 4.338C9.3779 4.386 9.3119 4.446 9.2519 4.518C9.1919 4.59 9.1619 4.656 9.1619 4.716C9.1619 4.764 9.1139 4.884 9.0179 5.076C8.9219 5.256 8.8019 5.466 8.6579 5.706C8.5139 5.934 8.3579 6.162 8.1899 6.39C8.0219 6.618 7.8659 6.798 7.7219 6.93C7.5659 7.122 7.3799 7.302 7.1639 7.47C6.9599 7.638 6.7739 7.776 6.6059 7.884C6.2939 8.028 5.9339 8.166 5.5259 8.298C5.1299 8.43 4.7459 8.538 4.3739 8.622C4.0019 8.694 3.7019 8.724 3.4739 8.712C3.1259 8.76 2.8979 8.808 2.7899 8.856C2.6819 8.892 2.6039 8.994 2.5559 9.162C2.4959 9.318 2.4359 9.48 2.3759 9.648C2.3279 9.816 2.3039 9.936 2.3039 10.008C2.2799 10.056 2.2259 10.188 2.1419 10.404C2.0699 10.62 1.9799 10.872 1.8719 11.16C1.7759 11.448 1.6859 11.736 1.6019 12.024C1.5179 12.312 1.4519 12.558 1.4039 12.762C1.3559 12.93 1.2539 13.056 1.0979 13.14C0.953902 13.224 0.827902 13.266 0.719902 13.266ZM3.2759 7.254C3.3239 7.302 3.4799 7.308 3.7439 7.272C4.0079 7.236 4.3259 7.146 4.6979 7.002C4.9379 6.918 5.1779 6.816 5.4179 6.696C5.6699 6.576 5.9099 6.444 6.1379 6.3C6.2579 6.216 6.3839 6.114 6.5159 5.994C6.6479 5.862 6.8339 5.646 7.0739 5.346C7.1099 5.286 7.1699 5.172 7.2539 5.004C7.3499 4.824 7.4339 4.656 7.5059 4.5C7.6139 4.332 7.7219 4.086 7.8299 3.762C7.9379 3.426 7.9619 3.15 7.9019 2.934C7.8419 2.622 7.7219 2.364 7.5419 2.16C7.3619 1.944 7.1339 1.788 6.8579 1.692C6.5939 1.644 6.3719 1.614 6.1919 1.602C6.0239 1.59 5.8379 1.602 5.6339 1.638C5.4419 1.698 5.3039 1.782 5.2199 1.89C5.1479 1.998 5.0399 2.226 4.8959 2.574C4.8119 2.742 4.6919 2.976 4.5359 3.276C4.3799 3.564 4.2479 3.858 4.1399 4.158C3.9239 4.95 3.7319 5.556 3.5639 5.976C3.4079 6.396 3.3059 6.672 3.2579 6.804C3.2699 6.936 3.2639 7.032 3.2399 7.092C3.2159 7.14 3.2279 7.194 3.2759 7.254ZM9.5489 12.114C9.3929 12.114 9.2669 12.084 9.1709 12.024C9.0869 11.964 8.9789 11.88 8.8469 11.772C8.6189 11.532 8.4329 11.274 8.2889 10.998C8.1569 10.722 8.1089 10.482 8.1449 10.278C8.1809 10.182 8.1929 10.092 8.1809 10.008C8.1809 9.912 8.1809 9.864 8.1809 9.864C8.1209 9.804 8.1029 9.768 8.1269 9.756C8.1509 9.732 8.1749 9.696 8.1989 9.648C8.2709 9.648 8.2949 9.582 8.2709 9.45C8.2469 9.354 8.2829 9.15 8.3789 8.838C8.4869 8.514 8.6309 8.208 8.8109 7.92C8.8829 7.8 8.9909 7.644 9.1349 7.452C9.2789 7.248 9.4349 7.05 9.6029 6.858C9.7829 6.654 9.9449 6.492 10.0889 6.372C10.3889 6.12 10.6649 5.916 10.9169 5.76C11.1809 5.604 11.4449 5.496 11.7089 5.436C11.9729 5.376 12.2429 5.346 12.5189 5.346C12.8069 5.346 13.0409 5.442 13.2209 5.634C13.4969 5.754 13.6889 5.916 13.7969 6.12C13.9169 6.324 13.9949 6.588 14.0309 6.912C14.0669 7.272 14.0309 7.716 13.9229 8.244C13.8149 8.76 13.5209 9.36 13.0409 10.044C12.7409 10.476 12.4469 10.812 12.1589 11.052C11.8709 11.292 11.5529 11.514 11.2049 11.718C10.9529 11.886 10.6829 11.988 10.3949 12.024C10.1069 12.06 9.8249 12.09 9.5489 12.114ZM11.3849 9.918C11.6489 9.69 11.8349 9.438 11.9429 9.162C12.0629 8.886 12.1889 8.562 12.3209 8.19C12.3689 8.118 12.3989 7.998 12.4109 7.83C12.4349 7.662 12.4409 7.5 12.4289 7.344C12.4169 7.176 12.3749 7.08 12.3029 7.056C12.1949 6.972 12.0869 6.954 11.9789 7.002C11.8709 7.038 11.7329 7.116 11.5649 7.236C11.2049 7.536 10.8689 7.884 10.5569 8.28C10.2569 8.664 10.0469 9.138 9.9269 9.702C9.8909 10.002 9.9209 10.23 10.0169 10.386C10.1249 10.53 10.2929 10.572 10.5209 10.512C10.7609 10.44 11.0489 10.242 11.3849 9.918ZM15.8004 12.348C15.3924 12.18 15.0924 12.006 14.9004 11.826C14.7204 11.634 14.6484 11.466 14.6844 11.322C14.7084 11.25 14.7504 11.184 14.8104 11.124C14.8704 11.064 15.0024 11.04 15.2064 11.052C15.4224 11.052 15.7524 11.106 16.1964 11.214C16.3284 11.214 16.4604 11.208 16.5924 11.196C16.7244 11.184 16.8444 11.166 16.9524 11.142C17.0724 11.118 17.1684 11.088 17.2404 11.052C17.3004 11.028 17.3184 10.998 17.2944 10.962C17.2704 10.914 17.2284 10.866 17.1684 10.818C17.1204 10.758 17.0664 10.722 17.0064 10.71C16.9464 10.686 16.8924 10.674 16.8444 10.674C16.8204 10.614 16.7664 10.554 16.6824 10.494C16.6104 10.434 16.5204 10.368 16.4124 10.296C16.1484 10.08 15.9084 9.888 15.6924 9.72C15.4764 9.552 15.3924 9.426 15.4404 9.342C15.4404 9.294 15.4404 9.27 15.4404 9.27C15.4404 9.258 15.4404 9.252 15.4404 9.252C15.3564 9.252 15.2784 9.138 15.2064 8.91C15.1344 8.67 15.0984 8.454 15.0984 8.262C15.0984 8.022 15.1464 7.782 15.2424 7.542C15.3504 7.302 15.4824 7.074 15.6384 6.858C15.8064 6.642 15.9744 6.45 16.1424 6.282C16.3704 6.066 16.6104 5.856 16.8624 5.652C17.1264 5.436 17.4084 5.244 17.7084 5.076C18.0204 4.908 18.3624 4.776 18.7344 4.68C18.9024 4.644 19.0944 4.626 19.3104 4.626C19.5264 4.626 19.6824 4.656 19.7784 4.716C19.8744 4.656 19.9944 4.674 20.1384 4.77C20.2824 4.854 20.4264 4.974 20.5704 5.13C20.7144 5.286 20.8224 5.442 20.8944 5.598C20.8944 5.742 20.8884 5.922 20.8764 6.138C20.8764 6.342 20.8644 6.522 20.8404 6.678C20.8164 6.834 20.7624 6.912 20.6784 6.912C20.6784 6.912 20.6604 6.918 20.6244 6.93C20.6004 6.93 20.5884 6.96 20.5884 7.02C20.5884 7.14 20.4984 7.278 20.3184 7.434C20.0904 7.59 19.8744 7.716 19.6704 7.812C19.4664 7.908 19.3104 7.914 19.2024 7.83C19.1304 7.782 19.0644 7.734 19.0044 7.686C18.9444 7.638 18.8904 7.578 18.8424 7.506C18.8424 7.506 18.8244 7.482 18.7884 7.434C18.7644 7.374 18.7524 7.32 18.7524 7.272C18.7524 7.224 18.7704 7.182 18.8064 7.146C18.8424 7.098 18.8604 7.074 18.8604 7.074C19.0284 6.918 19.1544 6.774 19.2384 6.642C19.3344 6.51 19.4004 6.396 19.4364 6.3C19.4724 6.192 19.4904 6.108 19.4904 6.048C19.4904 5.976 19.4724 5.934 19.4364 5.922C19.4124 5.898 19.3524 5.886 19.2564 5.886C19.1964 5.886 19.0644 5.934 18.8604 6.03C18.6684 6.126 18.4644 6.246 18.2484 6.39C18.0324 6.522 17.8644 6.642 17.7444 6.75C17.6964 6.834 17.6604 6.888 17.6364 6.912C17.6244 6.936 17.5944 6.948 17.5464 6.948C17.5464 6.9 17.5164 6.906 17.4564 6.966C17.3964 7.026 17.3244 7.11 17.2404 7.218C17.1564 7.326 17.0724 7.44 16.9884 7.56C16.9044 7.68 16.8384 7.776 16.7904 7.848C16.7784 7.956 16.7484 8.058 16.7004 8.154C16.6644 8.238 16.6524 8.328 16.6644 8.424C16.6764 8.544 16.7364 8.658 16.8444 8.766C16.9524 8.874 17.1084 9.012 17.3124 9.18C17.7324 9.492 18.0444 9.738 18.2484 9.918C18.4644 10.098 18.6144 10.242 18.6984 10.35C18.7824 10.458 18.8364 10.566 18.8604 10.674C19.0644 11.046 19.0884 11.37 18.9324 11.646C18.7764 11.91 18.5364 12.114 18.2124 12.258C18.0924 12.318 17.8824 12.372 17.5824 12.42C17.2824 12.48 16.9644 12.504 16.6284 12.492C16.3044 12.492 16.0284 12.444 15.8004 12.348ZM23.4794 12.348C23.3114 12.3 23.1434 12.216 22.9754 12.096C22.8074 11.976 22.6334 11.838 22.4534 11.682C22.3094 11.49 22.2074 11.316 22.1474 11.16C22.0874 10.992 22.0514 10.8 22.0394 10.584C22.0394 10.356 22.0394 10.068 22.0394 9.72C22.0394 9.576 22.0634 9.372 22.1114 9.108C22.1714 8.844 22.2314 8.568 22.2914 8.28C22.3634 7.992 22.4294 7.74 22.4894 7.524C22.5494 7.296 22.5854 7.146 22.5974 7.074C22.6334 6.918 22.5734 6.828 22.4174 6.804C22.2614 6.78 22.0874 6.774 21.8954 6.786C21.7154 6.786 21.5954 6.768 21.5354 6.732C21.4874 6.72 21.4634 6.66 21.4634 6.552C21.4634 6.432 21.4634 6.372 21.4634 6.372C21.4634 6.324 21.4394 6.294 21.3914 6.282C21.3434 6.258 21.3014 6.216 21.2654 6.156C21.2414 6.108 21.2714 6.018 21.3554 5.886C21.4394 5.754 21.5474 5.676 21.6794 5.652C21.7874 5.628 21.9494 5.61 22.1654 5.598C22.3814 5.574 22.5974 5.532 22.8134 5.472C23.0414 5.4 23.2154 5.292 23.3354 5.148C23.4434 4.884 23.5634 4.602 23.6954 4.302C23.8274 3.99 23.9534 3.72 24.0734 3.492C24.1934 3.252 24.2774 3.102 24.3254 3.042C24.5294 2.934 24.7394 2.892 24.9554 2.916C25.1714 2.928 25.3394 3.03 25.4594 3.222C25.5194 3.306 25.5674 3.366 25.6034 3.402C25.6514 3.438 25.6694 3.492 25.6574 3.564C25.6574 3.636 25.6094 3.768 25.5134 3.96C25.4294 4.14 25.2854 4.422 25.0814 4.806C25.0214 4.926 24.9674 5.034 24.9194 5.13C24.8714 5.214 24.8474 5.256 24.8474 5.256C24.8954 5.268 24.9674 5.274 25.0634 5.274C25.1594 5.274 25.2794 5.268 25.4234 5.256C25.5554 5.232 25.6994 5.214 25.8554 5.202C26.0114 5.178 26.1494 5.178 26.2694 5.202C26.5454 5.202 26.7494 5.28 26.8814 5.436C27.0134 5.592 27.0854 5.79 27.0974 6.03C27.1214 6.162 27.0734 6.276 26.9534 6.372C26.8334 6.468 26.6114 6.516 26.2874 6.516C26.1794 6.516 26.0234 6.522 25.8194 6.534C25.6154 6.546 25.4054 6.558 25.1894 6.57C24.9734 6.582 24.7874 6.6 24.6314 6.624C24.4874 6.636 24.4154 6.654 24.4154 6.678C24.3794 6.702 24.3194 6.798 24.2354 6.966C24.1634 7.122 24.0854 7.314 24.0014 7.542C23.9294 7.77 23.8634 7.986 23.8034 8.19C23.7194 8.598 23.6594 8.994 23.6234 9.378C23.5874 9.762 23.5814 10.098 23.6054 10.386C23.6414 10.662 23.7134 10.86 23.8214 10.98C23.9294 11.088 24.0914 11.088 24.3074 10.98C24.5354 10.86 24.7454 10.722 24.9374 10.566C25.1534 10.386 25.3394 10.332 25.4954 10.404C25.6514 10.464 25.7474 10.596 25.7834 10.8C25.8314 10.992 25.7774 11.202 25.6214 11.43C25.4774 11.658 25.2734 11.85 25.0094 12.006C24.7454 12.162 24.4754 12.27 24.1994 12.33C23.9234 12.402 23.6834 12.408 23.4794 12.348ZM28.8803 12.366C28.2443 12.366 27.7763 12.162 27.4763 11.754C27.3923 11.562 27.3503 11.37 27.3503 11.178C27.3623 10.974 27.4103 10.83 27.4943 10.746C27.5783 10.65 27.6803 10.668 27.8003 10.8C27.9563 10.896 28.1783 10.944 28.4663 10.944C28.6103 10.944 28.7363 10.944 28.8443 10.944C28.9643 10.932 29.1023 10.92 29.2583 10.908C29.5343 10.884 29.7083 10.8 29.7803 10.656C29.8643 10.512 29.8463 10.392 29.7263 10.296H29.7443C29.4203 10.212 29.1023 10.092 28.7903 9.936C28.4783 9.78 28.2143 9.606 27.9983 9.414C27.7823 9.21 27.6563 9.018 27.6203 8.838C27.5243 8.442 27.5483 8.034 27.6923 7.614C27.8363 7.194 28.0463 6.828 28.3223 6.516C28.4303 6.444 28.5803 6.342 28.7723 6.21C28.9643 6.066 29.1023 5.988 29.1863 5.976V5.994C29.4143 5.754 29.6723 5.562 29.9603 5.418C30.2483 5.262 30.5843 5.118 30.9683 4.986L31.2563 4.95C31.4003 4.926 31.5263 4.914 31.6343 4.914C31.6223 4.914 31.6523 4.926 31.7243 4.95C31.7963 4.974 31.8563 4.992 31.9043 5.004C31.9763 5.04 32.0483 5.058 32.1203 5.058C32.2883 5.082 32.4503 5.172 32.6063 5.328C32.7743 5.472 32.9063 5.646 33.0023 5.85C33.1103 6.042 33.1523 6.222 33.1283 6.39C33.0923 6.666 32.9903 6.942 32.8223 7.218C32.6543 7.482 32.4743 7.632 32.2823 7.668C32.3063 7.656 32.2823 7.632 32.2103 7.596C32.1383 7.56 32.0723 7.524 32.0123 7.488L31.9403 7.524C31.9403 7.524 31.9343 7.506 31.9223 7.47C31.9223 7.434 31.9103 7.392 31.8863 7.344C31.8383 7.26 31.8023 7.17 31.7783 7.074C31.7663 6.978 31.7663 6.87 31.7783 6.75C31.8023 6.618 31.8083 6.54 31.7963 6.516C31.7843 6.492 31.7123 6.474 31.5803 6.462C31.4243 6.426 31.2263 6.444 30.9863 6.516C30.7463 6.576 30.5243 6.684 30.3203 6.84C30.0803 6.996 29.9003 7.122 29.7803 7.218C29.6723 7.314 29.5883 7.41 29.5283 7.506C29.4683 7.59 29.4023 7.716 29.3303 7.884C29.2823 7.968 29.2403 8.046 29.2043 8.118C29.1683 8.178 29.1503 8.238 29.1503 8.298C29.1503 8.418 29.2523 8.544 29.4563 8.676C29.6603 8.796 29.9663 8.94 30.3743 9.108C30.6983 9.24 30.9083 9.42 31.0043 9.648C31.1123 9.876 31.2083 10.092 31.2923 10.296C31.3163 10.344 31.3403 10.434 31.3643 10.566C31.4003 10.686 31.4063 10.758 31.3823 10.782C31.4063 10.806 31.4183 10.83 31.4183 10.854V10.836C31.5143 11.016 31.4963 11.208 31.3643 11.412C31.2443 11.604 31.0523 11.784 30.7883 11.952C30.5243 12.108 30.2243 12.222 29.8883 12.294H29.9063C29.7263 12.318 29.5463 12.336 29.3663 12.348C29.1983 12.36 29.0363 12.366 28.8803 12.366Z" fill="#262626"/>
</svg>
