<svg width="27" height="16" viewBox="0 0 27 16" fill="none" xmlns="http://www.w3.org/2000/svg">
<path d="M1.09792 12.51C0.881918 12.522 0.701918 12.42 0.557918 12.204C0.413918 11.988 0.347918 11.808 0.359918 11.664C0.371918 11.472 0.425918 11.196 0.521918 10.836C0.617918 10.476 0.725918 10.11 0.845918 9.738C0.965918 9.366 1.07392 9.072 1.16992 8.856C1.21792 8.664 1.25992 8.496 1.29592 8.352C1.34392 8.196 1.37392 8.094 1.38592 8.046C1.42192 7.998 1.47592 7.872 1.54792 7.668C1.63192 7.464 1.69792 7.266 1.74592 7.074C1.76992 6.978 1.81792 6.798 1.88992 6.534C1.97392 6.258 2.06992 5.94 2.17792 5.58C2.29792 5.22 2.41192 4.866 2.51992 4.518C2.63992 4.17 2.74192 3.864 2.82592 3.6C2.90992 3.336 2.96392 3.162 2.98792 3.078C3.08392 2.934 3.15592 2.796 3.20392 2.664C3.25192 2.532 3.28192 2.442 3.29392 2.394C3.36592 2.346 3.40792 2.286 3.41992 2.214C3.43192 2.13 3.43792 2.064 3.43792 2.016C3.43792 1.956 3.45592 1.908 3.49192 1.872C3.53992 1.836 3.56392 1.794 3.56392 1.746C3.61192 1.71 3.64192 1.704 3.65392 1.728C3.66592 1.752 3.70192 1.734 3.76192 1.674L3.85192 1.062L5.45392 1.044C5.42992 1.188 5.39392 1.368 5.34592 1.584C5.29792 1.788 5.18392 2.064 5.00392 2.412C4.94392 2.652 4.87192 2.868 4.78792 3.06C4.71592 3.252 4.68592 3.378 4.69792 3.438C4.67392 3.462 4.61992 3.582 4.53592 3.798C4.46392 4.014 4.37392 4.278 4.26592 4.59C4.16992 4.902 4.06792 5.214 3.95992 5.526C3.86392 5.838 3.77392 6.114 3.68992 6.354C3.61792 6.582 3.56992 6.726 3.54592 6.786C3.44992 6.978 3.34192 7.26 3.22192 7.632C3.10192 8.004 2.92192 8.508 2.68192 9.144C2.58592 9.336 2.46592 9.624 2.32192 10.008C2.18992 10.392 2.08192 10.74 1.99792 11.052C1.86592 11.52 1.74592 11.856 1.63792 12.06C1.54192 12.264 1.45192 12.384 1.36792 12.42C1.28392 12.468 1.19392 12.498 1.09792 12.51ZM1.25992 1.926C0.767918 1.974 0.431918 1.914 0.251918 1.746C0.083918 1.578 0.0239181 1.398 0.0719182 1.206C0.107918 1.062 0.191918 0.941999 0.323918 0.845999C0.467918 0.737999 0.725918 0.647999 1.09792 0.575999C1.22992 0.551999 1.39792 0.521999 1.60192 0.486C1.81792 0.449999 2.02192 0.413999 2.21392 0.377999C2.60992 0.329999 2.93392 0.288 3.18592 0.251999C3.44992 0.215999 3.71992 0.185999 3.99592 0.161999C4.27192 0.137999 4.61992 0.113999 5.03992 0.0899993C5.38792 0.0659989 5.68192 0.0479988 5.92192 0.0359989C6.17392 0.0119992 6.29992 -5.96046e-07 6.29992 -5.96046e-07C6.33592 -5.96046e-07 6.46192 0.0119992 6.67792 0.0359989C6.89392 0.0599993 7.12792 0.0899993 7.37992 0.125999C7.63192 0.161999 7.81792 0.203999 7.93792 0.251999C8.21392 0.311999 8.43592 0.419999 8.60392 0.575999C8.77192 0.732 8.87992 0.911999 8.92792 1.116C8.96392 1.26 8.96392 1.374 8.92792 1.458C8.89192 1.53 8.82592 1.59 8.72992 1.638C8.45392 1.722 8.22592 1.794 8.04592 1.854C7.87792 1.902 7.70992 1.896 7.54192 1.836C7.48192 1.776 7.40992 1.722 7.32592 1.674C7.25392 1.626 7.12192 1.59 6.92992 1.566C6.74992 1.53 6.46192 1.5 6.06592 1.476C5.72992 1.512 5.43592 1.53 5.18392 1.53C4.93192 1.53 4.80592 1.56 4.80592 1.62L3.74392 1.674L2.86192 1.764C2.74192 1.776 2.57392 1.794 2.35792 1.818C2.14192 1.83 1.93192 1.848 1.72792 1.872C1.52392 1.884 1.36792 1.902 1.25992 1.926ZM5.92487 11.178C5.87687 11.082 5.76887 10.986 5.60087 10.89C5.44487 10.794 5.36687 10.722 5.36687 10.674C5.36687 10.626 5.33687 10.554 5.27687 10.458C5.22887 10.35 5.18087 10.272 5.13287 10.224C5.07287 10.152 5.09087 9.978 5.18687 9.702C5.28287 9.414 5.42687 9.066 5.61887 8.658C5.81087 8.25 6.02087 7.836 6.24887 7.416C6.34487 7.32 6.44087 7.194 6.53687 7.038C6.63287 6.882 6.70487 6.78 6.75287 6.732C6.75287 6.684 6.77087 6.642 6.80687 6.606C6.84287 6.558 6.88487 6.534 6.93287 6.534L7.07687 6.246C7.10087 6.198 7.17287 6.102 7.29287 5.958C7.42487 5.814 7.58087 5.658 7.76087 5.49C7.94087 5.31 8.12087 5.142 8.30087 4.986C8.49287 4.83 8.64887 4.716 8.76887 4.644C9.02087 4.476 9.27887 4.398 9.54287 4.41C9.81887 4.422 10.0529 4.506 10.2449 4.662C10.2809 4.698 10.3589 4.77 10.4789 4.878C10.6109 4.986 10.7549 5.106 10.9109 5.238C11.0789 5.37 11.2229 5.49 11.3429 5.598L12.0089 6.192L11.7029 7.092C11.5469 7.572 11.5049 7.992 11.5769 8.352C11.6489 8.712 11.7629 9.024 11.9189 9.288C11.9789 9.42 12.0569 9.522 12.1529 9.594C12.2609 9.666 12.3989 9.714 12.5669 9.738C12.6629 9.75 12.7529 9.786 12.8369 9.846C12.9209 9.906 12.9629 10.002 12.9629 10.134C12.9629 10.422 12.9089 10.632 12.8009 10.764C12.7049 10.884 12.5969 10.956 12.4769 10.98C12.0809 11.028 11.7029 10.986 11.3429 10.854C10.9829 10.722 10.6589 10.38 10.3709 9.828C10.3229 9.756 10.2569 9.624 10.1729 9.432C10.1009 9.228 10.0589 9.096 10.0469 9.036C9.99887 9.096 9.93287 9.174 9.84887 9.27C9.77687 9.354 9.70487 9.432 9.63287 9.504C8.78087 10.368 8.04887 10.932 7.43687 11.196C6.83687 11.448 6.33287 11.442 5.92487 11.178ZM6.91487 9.684C6.99887 9.696 7.13087 9.654 7.31087 9.558C7.49087 9.45 7.73087 9.276 8.03087 9.036C8.43887 8.688 8.77487 8.4 9.03887 8.172C9.30287 7.944 9.56087 7.65 9.81287 7.29L10.2089 6.642C10.0889 6.366 9.98087 6.186 9.88487 6.102C9.78887 6.018 9.69287 5.976 9.59687 5.976C9.44087 5.976 9.25487 6.078 9.03887 6.282C8.82287 6.474 8.57687 6.762 8.30087 7.146C8.03687 7.518 7.73687 7.986 7.40087 8.55C7.24487 8.814 7.12487 9.072 7.04087 9.324C6.95687 9.564 6.91487 9.684 6.91487 9.684ZM15.5781 15.156C15.2421 15.288 14.8881 15.264 14.5161 15.084C14.1561 14.916 13.8441 14.646 13.5801 14.274C13.5321 14.202 13.4601 14.07 13.3641 13.878C13.2681 13.698 13.1721 13.5 13.0761 13.284C12.9921 13.068 12.9261 12.882 12.8781 12.726C12.8421 12.57 12.8421 12.48 12.8781 12.456C12.9261 12.324 13.0341 12.246 13.2021 12.222C13.3701 12.198 13.5381 12.204 13.7061 12.24C13.8741 12.288 13.9701 12.348 13.9941 12.42C14.0301 12.504 14.0661 12.588 14.1021 12.672C14.1381 12.768 14.1801 12.852 14.2281 12.924C14.2881 13.008 14.3421 13.08 14.3901 13.14C14.5221 13.344 14.6661 13.482 14.8221 13.554C14.9781 13.638 15.0981 13.65 15.1821 13.59C15.3861 13.434 15.5361 13.248 15.6321 13.032C15.7401 12.828 15.8781 12.462 16.0461 11.934C16.1781 11.49 16.2921 11.106 16.3881 10.782C16.4841 10.458 16.5861 10.158 16.6941 9.882C16.7301 9.738 16.7721 9.618 16.8201 9.522C16.8801 9.414 16.9341 9.336 16.9821 9.288H17.0901C16.8261 9.456 16.6041 9.624 16.4241 9.792C16.2441 9.96 15.9981 10.11 15.6861 10.242C15.6141 10.326 15.4341 10.38 15.1461 10.404C14.8701 10.416 14.6001 10.38 14.3361 10.296C14.1681 10.2 14.0301 10.104 13.9221 10.008C13.8261 9.9 13.7421 9.78 13.6701 9.648C13.6101 9.516 13.5441 9.36 13.4721 9.18C13.3881 9 13.3761 8.706 13.4361 8.298C13.4961 7.89 13.6041 7.482 13.7601 7.074C13.9041 6.774 14.1141 6.45 14.3901 6.102C14.6661 5.754 14.9601 5.442 15.2721 5.166C15.5841 4.878 15.8661 4.698 16.1181 4.626C16.2141 4.578 16.3821 4.524 16.6221 4.464C16.8621 4.392 17.0901 4.386 17.3061 4.446C17.5101 4.47 17.6661 4.518 17.7741 4.59C17.8821 4.65 18.0561 4.782 18.2961 4.986C18.4521 5.142 18.6441 5.346 18.8721 5.598C19.1001 5.838 19.2441 6.042 19.3041 6.21C19.3881 6.39 19.4061 6.588 19.3581 6.804C19.3101 7.008 19.2261 7.188 19.1061 7.344C18.9981 7.5 18.8841 7.656 18.7641 7.812C18.6441 7.968 18.5541 8.184 18.4941 8.46C18.4341 8.82 18.3201 9.228 18.1521 9.684C17.9841 10.128 17.8521 10.542 17.7561 10.926L17.4681 12.042C17.1681 13.062 16.8381 13.8 16.4781 14.256C16.1181 14.724 15.8181 15.024 15.5781 15.156ZM15.2001 8.964C15.4401 8.952 15.6441 8.928 15.8121 8.892C15.9921 8.844 16.1601 8.748 16.3161 8.604C16.4721 8.448 16.6521 8.214 16.8561 7.902C17.0601 7.614 17.2041 7.35 17.2881 7.11C17.3721 6.87 17.4021 6.6 17.3781 6.3C17.3661 6.108 17.3121 5.982 17.2161 5.922C17.1201 5.862 16.9941 5.844 16.8381 5.868C16.6101 5.904 16.4061 6 16.2261 6.156C16.0461 6.3 15.8361 6.528 15.5961 6.84C15.4161 7.08 15.2661 7.368 15.1461 7.704C15.0261 8.064 14.9721 8.352 14.9841 8.568C15.0081 8.784 15.0801 8.916 15.2001 8.964ZM21.7747 11.664C21.3907 11.664 21.0367 11.58 20.7127 11.412C20.4007 11.232 20.1487 11.016 19.9567 10.764C19.7647 10.5 19.6687 10.248 19.6687 10.008C19.6687 9.9 19.6867 9.822 19.7227 9.774C19.7707 9.726 19.8367 9.702 19.9207 9.702C19.9807 9.714 20.0527 9.744 20.1367 9.792C20.2207 9.84 20.3047 9.894 20.3887 9.954C20.5807 10.086 20.7907 10.17 21.0187 10.206C21.2467 10.242 21.4507 10.23 21.6307 10.17C21.8107 10.098 21.9127 9.99 21.9367 9.846C21.9367 9.798 21.9127 9.696 21.8647 9.54C21.8167 9.384 21.7567 9.234 21.6847 9.09C21.3847 8.646 21.1987 8.226 21.1267 7.83C21.0547 7.422 21.0067 7.014 20.9827 6.606C20.9827 6.438 21.0607 6.252 21.2167 6.048C21.3727 5.832 21.5647 5.622 21.7927 5.418C22.0447 5.202 22.3207 4.998 22.6207 4.806C22.9327 4.614 23.2387 4.452 23.5387 4.32C23.8387 4.188 24.0907 4.11 24.2947 4.086C24.5107 4.086 24.7387 4.098 24.9787 4.122C25.2307 4.134 25.3987 4.176 25.4827 4.248C25.6507 4.38 25.8067 4.596 25.9507 4.896C26.0947 5.196 26.1667 5.448 26.1667 5.652C26.1667 5.748 26.1127 5.868 26.0047 6.012C25.9087 6.144 25.8187 6.294 25.7347 6.462C25.6867 6.546 25.6447 6.636 25.6087 6.732C25.5727 6.828 25.5307 6.924 25.4827 7.02C25.4107 7.188 25.2787 7.26 25.0867 7.236C24.9067 7.2 24.7387 7.104 24.5827 6.948C24.4267 6.78 24.3487 6.588 24.3487 6.372C24.3487 6.192 24.4027 6.036 24.5107 5.904C24.6187 5.772 24.6727 5.682 24.6727 5.634C24.6727 5.61 24.6607 5.592 24.6367 5.58C24.6127 5.568 24.5707 5.562 24.5107 5.562C24.4267 5.562 24.2887 5.598 24.0967 5.67C23.9167 5.73 23.7247 5.82 23.5207 5.94C23.3167 6.06 23.1307 6.204 22.9627 6.372C22.8427 6.504 22.7407 6.648 22.6567 6.804C22.5847 6.948 22.5487 7.104 22.5487 7.272C22.5487 7.44 22.5787 7.638 22.6387 7.866C22.7107 8.082 22.7887 8.262 22.8727 8.406C22.8967 8.43 22.9327 8.496 22.9807 8.604C23.0407 8.7 23.1067 8.82 23.1787 8.964C23.6227 9.876 23.6947 10.554 23.3947 10.998C23.1067 11.442 22.5667 11.664 21.7747 11.664Z" fill="#262626"/>
</svg>
